<?xml version="1.0" encoding="UTF-8"?>
<svg version="1.1" xmlns="http://www.w3.org/2000/svg" width="68" height="68">
<path d="M0 0 C6.03859286 3.64091628 10.46324287 8.5160484 12.5 15.3125 C13.4596976 23.06763215 13.18037575 29.86739241 8.5 36.3125 C4.12672101 41.65761876 -0.75172587 44.84865108 -7.625 45.69921875 C-16.28201199 45.98978975 -21.61358038 44.49229787 -28.25 39.0625 C-33.67979787 32.42608038 -35.17728975 27.09451199 -34.88671875 18.4375 C-34.03615108 11.56422587 -30.84511876 6.68577899 -25.5 2.3125 C-18.20835422 -2.98262372 -8.20786205 -3.80857235 0 0 Z " fill="#F05341" transform="translate(44.5,12.6875)"/>
<path d="M0 0 C0.99 0.33 1.98 0.66 3 1 C1.52171919 5.63367552 -1.1640062 8.89574814 -4.3125 12.5 C-4.78623047 13.05558594 -5.25996094 13.61117187 -5.74804688 14.18359375 C-8.6946277 17.60985052 -11.76677507 20.84333595 -15 24 C-16.84201153 22.57363718 -18.67340587 21.13355368 -20.5 19.6875 C-21.5209375 18.88699219 -22.541875 18.08648437 -23.59375 17.26171875 C-24.3878125 16.51535156 -25.181875 15.76898438 -26 15 C-26 14.01 -26 13.02 -26 12 C-21.62140745 12.50522222 -19.18348776 15.17827222 -16 18 C-12.14044075 14.25333462 -8.63380746 10.31478678 -5.1875 6.1875 C-4.68541016 5.59001953 -4.18332031 4.99253906 -3.66601562 4.37695312 C-2.44193268 2.91971152 -1.22067038 1.46010135 0 0 Z " fill="#FDEFEE" transform="translate(45,24)"/>
</svg>
